<?xml version="1.0" encoding="UTF-8" standalone="no"?>
<svg
   width="22"
   height="20"
   viewBox="0 0 22 20"
   fill="none"
   version="1.1"
   id="svg12689"
   sodipodi:docname="Iconly-Light-Message.svg"
   inkscape:version="1.1 (1:1.1+202105261517+ce6663b3b7)"
   xmlns:inkscape="http://www.inkscape.org/namespaces/inkscape"
   xmlns:sodipodi="http://sodipodi.sourceforge.net/DTD/sodipodi-0.dtd"
   xmlns="http://www.w3.org/2000/svg"
   xmlns:svg="http://www.w3.org/2000/svg">
  <defs
     id="defs12693" />
  <sodipodi:namedview
     id="namedview12691"
     pagecolor="#ffffff"
     bordercolor="#666666"
     borderopacity="1.0"
     inkscape:pageshadow="2"
     inkscape:pageopacity="0.0"
     inkscape:pagecheckerboard="0"
     showgrid="false"
     inkscape:zoom="31.75"
     inkscape:cx="10.992126"
     inkscape:cy="9.8582677"
     inkscape:window-width="1920"
     inkscape:window-height="1023"
     inkscape:window-x="0"
     inkscape:window-y="25"
     inkscape:window-maximized="1"
     inkscape:current-layer="svg12689" />
  <path
     d="M16.9026 6.85107L12.4593 10.4641C11.6198 11.1301 10.4387 11.1301 9.59919 10.4641L5.11841 6.85107"
     stroke="#363853"
     stroke-width="1.5"
     stroke-linecap="round"
     stroke-linejoin="round"
     id="path12685" />
  <path
     fill-rule="evenodd"
     clip-rule="evenodd"
     d="M15.9089 19C18.9502 19.0084 21 16.5095 21 13.4384V6.57001C21 3.49883 18.9502 1 15.9089 1H6.09114C3.04979 1 1 3.49883 1 6.57001V13.4384C1 16.5095 3.04979 19.0084 6.09114 19H15.9089Z"
     stroke="#363853"
     stroke-width="1.5"
     stroke-linecap="round"
     stroke-linejoin="round"
     id="path12687" />
  <path
     style="opacity:0.1;fill:#800000;stroke:#aa4400;stroke-width:0.0315457"
     d="M 5.4173228,19.697377 C 2.8452229,19.406279 0.85193865,17.429622 0.37770515,14.699796 0.2609387,14.027654 0.24660294,13.404444 0.26017681,9.5905512 0.27407749,5.6848337 0.27106865,5.761486 0.44110921,4.9811868 0.52836898,4.5807606 0.74891197,3.9384208 0.92643468,3.5676586 1.8203803,1.7006218 3.4965748,0.50164298 5.496063,0.29901202 c 0.2453401,-0.0248631 1.9183572,-0.0315762 5.732283,-0.023001 5.763591,0.0129588 5.474205,0.005216 6.094489,0.16307314 0.85198,0.21682279 1.574654,0.58905484 2.259835,1.16398684 0.902184,0.7570189 1.61479,1.9368723 1.930184,3.1957866 0.20916,0.8348712 0.199144,0.6011295 0.212075,4.9491739 0.01247,4.1939495 0.0066,4.4152825 -0.134788,5.1181105 -0.538584,2.676435 -2.493297,4.554497 -5.029845,4.832608 -0.37133,0.04071 -10.7824393,0.03943 -11.1429732,-0.0014 z M 16.661417,18.203226 c 0.164567,-0.02667 0.443215,-0.09666 0.619217,-0.155533 0.646328,-0.216199 1.098509,-0.498067 1.586993,-0.989252 0.737972,-0.742054 1.170793,-1.645916 1.336358,-2.790724 0.04415,-0.305314 0.04903,-0.828954 0.04108,-4.4094493 l -0.009,-4.0629921 -0.07269,-0.3426321 C 19.79163,3.7005414 18.758396,2.4432986 17.290062,1.9564253 16.619108,1.7339488 16.944775,1.744133 10.866142,1.7555384 4.8522624,1.7668223 5.3313937,1.7512047 4.7086614,1.9562453 3.213801,2.4484424 2.1420648,3.7881559 1.8176935,5.5700718 1.748155,5.9520775 1.7480315,5.959932 1.7480315,10 c 0,3.78282 0.00377,4.068573 0.057668,4.373696 0.1666986,0.943668 0.5052007,1.718358 1.043529,2.388201 0.5180393,0.644599 1.271736,1.135629 2.0686979,1.347749 0.1667367,0.04438 0.3862879,0.09283 0.4878913,0.107665 0.1016038,0.01484 2.6083559,0.02865 5.5705603,0.03069 4.710441,0.0032 5.423348,-0.0024 5.685039,-0.04477 z"
     id="path12732" />
  <path
     style="opacity:0.1;fill:#800000;stroke:#aa4400;stroke-width:0.0315457"
     d="M 8.0314961,19.7019 C 5.2915458,19.68195 5.2387329,19.680396 4.9291339,19.610646 4.1880054,19.443674 3.4050183,19.10373 2.8346457,18.701296 2.4519201,18.43126 1.7501139,17.729311 1.4722086,17.338583 1.0305177,16.717576 0.60368554,15.72869 0.44581454,14.96063 0.30454731,14.273349 0.30520106,14.292517 0.29219515,10.456693 0.27848907,6.4143685 0.29483701,5.7513997 0.42327567,5.1408948 0.58015068,4.3952246 0.91210643,3.5520954 1.2855615,2.9507889 1.5145644,2.5820676 1.7009067,2.3463216 2.0464077,1.988225 2.7685622,1.2397437 3.5949493,0.75058312 4.5826772,0.4869393 5.3169537,0.29094665 5.050515,0.29875548 10.850394,0.30324394 c 2.910236,0.002252 5.469283,0.015492 5.686771,0.0294218 1.224552,0.0784308 2.616112,0.76302846 3.48955,1.71673326 0.730834,0.7979958 1.216372,1.7327802 1.503947,2.8954829 0.164168,0.6637531 0.175799,1.0610838 0.16181,5.5275591 -0.01188,3.792708 -0.01323,3.864155 -0.07973,4.204724 -0.140682,0.720556 -0.331771,1.296947 -0.621286,1.874016 -0.852062,1.698351 -2.336563,2.796935 -4.188309,3.099499 -0.232127,0.03793 -0.748362,0.04669 -2.850394,0.04835 -1.411811,0.0011 -2.694488,0.0068 -2.850394,0.0126 -0.155905,0.0058 -1.5377951,0.0014 -3.0708659,-0.0097 z m 8.5847459,-1.483709 c 0.536915,-0.07468 1.142464,-0.305288 1.611812,-0.613823 0.367,-0.241255 0.942745,-0.820017 1.199221,-1.205506 0.344534,-0.517842 0.570567,-1.067474 0.735316,-1.788027 l 0.07125,-0.311622 0.0099,-4.262159 0.0099,-4.2621583 -0.111799,-0.4534875 C 19.886666,4.286058 19.492615,3.5468564 18.855729,2.9086551 18.25848,2.3101724 17.397721,1.8777781 16.614173,1.7826306 16.419266,1.7589626 14.662877,1.7483733 10.992126,1.7487351 5.1286772,1.749313 5.2543871,1.7455277 4.7086614,1.9379408 3.2126112,2.4654214 2.2100746,3.6896233 1.8205989,5.4645669 L 1.7480315,5.7952756 V 10 14.204724 l 0.073664,0.342648 c 0.1537923,0.715361 0.4128472,1.346726 0.7801607,1.901398 0.2285397,0.345113 0.7665108,0.88997 1.095998,1.110028 0.4807351,0.321073 1.1387335,0.584839 1.6417373,0.658109 0.2850639,0.04152 10.9785825,0.04274 11.2766505,0.0013 z"
     id="path12771" />
  <path
     style="opacity:0.1;fill:#800000;stroke:#aa4400;stroke-width:0.0315457"
     d="M 6.1259843,19.668675 C 5.1336753,19.647149 5.1125165,19.645317 4.7559055,19.550029 4.1143817,19.378611 3.4791858,19.101199 2.976378,18.772846 2.4684192,18.441129 1.7339649,17.706736 1.3989155,17.195516 0.92443953,16.471558 0.54400999,15.491471 0.38943414,14.594827 0.34491249,14.336571 0.33668839,13.80565 0.32435762,10.393701 0.30960658,6.312058 0.3223402,5.7312787 0.43913109,5.1588932 0.62239247,4.2607392 1.0510648,3.2693298 1.5505291,2.5885136 1.7944074,2.2560848 2.4966166,1.5621519 2.8194435,1.3345549 3.586742,0.79359969 4.5062198,0.43937207 5.3521373,0.35883797 c 0.6235128,-0.0593605 10.8825157,-0.0533239 11.3722717,0.006692 0.472094,0.057851 0.972487,0.19785485 1.454732,0.40701592 1.578793,0.68476001 2.730795,2.05375311 3.25097,3.86332321 0.235625,0.8196847 0.223432,0.524376 0.223432,5.4113749 v 4.377953 l -0.08699,0.40255 c -0.42931,1.986563 -1.519184,3.479138 -3.128473,4.28442 -0.480899,0.24064 -1.114554,0.440928 -1.666422,0.526728 -0.258475,0.04019 -9.034271,0.06473 -10.6456697,0.02978 z M 16.790869,18.202066 c 0.876847,-0.165869 1.70331,-0.655091 2.312976,-1.369157 0.524071,-0.613814 0.832662,-1.243614 1.055679,-2.154524 l 0.09223,-0.376733 0.0035,-4.284684 0.0035,-4.2846845 -0.07981,-0.3307087 C 19.93711,4.3997997 19.54977,3.6310277 18.976876,3.0159253 18.398072,2.3944776 17.581924,1.9456417 16.740647,1.7861247 16.478808,1.7364768 16.039685,1.7328334 11.102362,1.7393448 7.6883899,1.7438472 5.6191269,1.7583215 5.3923257,1.779286 4.5961083,1.8528848 3.7972762,2.257422 3.1298477,2.9250294 2.4772707,3.5777814 2.1030961,4.2771376 1.8385314,5.3385827 l -0.1059802,0.4251968 -1.354e-4,4.2313436 -1.323e-4,4.2313429 0.1087036,0.450915 c 0.442052,1.833682 1.5097077,3.014352 3.1511389,3.484694 0.2474661,0.07091 0.2888321,0.07256 2.3149606,0.09217 1.1346457,0.01098 3.6787404,0.01394 5.6535434,0.0066 2.950142,-0.01102 3.633302,-0.02149 3.830239,-0.05875 z"
     id="path12810" />
  <path
     style="opacity:0.1;fill:#800000;stroke:#aa4400;stroke-width:0.0315457"
     d="M 5.6062992,19.638319 C 5.0894507,19.616169 4.9846167,19.602074 4.6783694,19.513556 3.9694104,19.308637 3.2711982,18.975167 2.7716535,18.602898 2.4508704,18.363846 1.7926647,17.700508 1.532746,17.354331 1.0946244,16.770811 0.61204737,15.627981 0.4355221,14.755906 L 0.36220472,14.393701 V 10.031496 5.6692913 l 0.069644,-0.3825782 C 0.57165971,4.5186835 1.0016847,3.4364628 1.4141093,2.814711 1.7405455,2.3225911 2.4811843,1.5785774 2.9644578,1.2572978 3.4895124,0.90824205 4.1746816,0.61089913 4.7871613,0.46629887 c 0.2989562,-0.0705806 0.429902,-0.0806841 1.354571,-0.10451574 1.3243149,-0.0341318 7.9765337,-0.0341039 9.5275587,3.996e-5 1.319843,0.0290547 1.389707,0.037736 2.039687,0.25345351 1.879724,0.6238495 3.219962,2.1440427 3.775429,4.2823612 0.07279,0.2802006 0.100542,0.4762973 0.122593,0.8661417 0.01568,0.2771654 0.02879,2.3393701 0.02913,4.5826775 l 6.26e-4,4.07874 -0.09202,0.41588 c -0.220902,0.998332 -0.650687,1.961289 -1.189359,2.664827 -0.224359,0.293027 -0.685869,0.760667 -0.970782,0.983677 -0.677325,0.530163 -1.378968,0.857249 -2.297981,1.071252 l -0.346456,0.08068 -5.275591,0.01089 c -2.9015746,0.006 -5.537795,-3.47e-4 -5.8582675,-0.01408 z M 16.850394,18.205473 c 0.817398,-0.182683 1.524459,-0.58663 2.11734,-1.209647 0.565636,-0.594387 0.8974,-1.213254 1.181612,-2.204161 l 0.114144,-0.397964 0.01243,-4.2917 C 20.28717,6.2162372 20.28352,5.7887373 20.23689,5.5823162 19.770923,3.5179761 18.711,2.3051049 16.944882,1.8152704 l -0.299213,-0.082987 -5.543307,5.691e-4 C 6.7791468,1.7332967 5.4981191,1.7422573 5.2822006,1.773564 4.2494617,1.9233041 3.218106,2.6075088 2.5707833,3.5723269 2.2423997,4.0617745 2.0279723,4.5656998 1.8393194,5.2913386 L 1.7328701,5.7007874 1.7325772,9.9909061 c -2.834e-4,4.1674159 0.00149,4.2977809 0.062166,4.5579879 0.2540668,1.089623 0.6756323,1.901236 1.3189937,2.539374 0.4997882,0.495731 1.017117,0.808527 1.7209095,1.040526 l 0.3149606,0.103824 0.976378,0.02114 c 0.5370078,0.01163 3.1165354,0.0174 5.732283,0.01283 4.315551,-0.0076 4.777777,-0.01321 4.992126,-0.06111 z"
     id="path12849" />
  <path
     style="opacity:0.1;fill:#800000;stroke:#aa4400;stroke-width:0.0315457"
     d="M 5.2554992,19.605119 C 4.6081546,19.546686 3.6438482,19.167152 2.9279367,18.689031 2.573054,18.452023 1.83865,17.734361 1.5431302,17.335793 1.3256147,17.04243 0.91997991,16.242535 0.73796022,15.748031 0.67419735,15.574803 0.57065418,15.241732 0.50786427,15.007874 L 0.39370079,14.582677 0.3842792,10.173228 C 0.37750897,7.0046586 0.3849248,5.6928721 0.41063126,5.511811 0.51999935,4.7414866 0.96628677,3.5435405 1.3909158,2.8804837 1.6658412,2.4511886 2.3508974,1.7328313 2.8129426,1.3893312 3.355685,0.98583805 4.1368031,0.63082022 4.8346457,0.47046821 c 0.1212598,-0.0278634 0.4401574,-0.0614706 0.7086614,-0.0746828 1.1807666,-0.0581013 9.5790799,-0.0572792 10.8346459,0.001061 0.588125,0.0273272 0.870629,0.0775775 1.332216,0.2369672 1.298014,0.44821529 2.333322,1.29936359 3.039281,2.49865719 0.433047,0.7356652 0.755024,1.6771824 0.824452,2.4108366 0.02087,0.2205329 0.0328,1.9149565 0.03283,4.6619036 l 3.1e-5,4.315447 -0.122684,0.487703 c -0.30641,1.218061 -0.800171,2.163133 -1.522962,2.914988 -0.806454,0.838883 -1.586871,1.286789 -2.811517,1.613618 l -0.314961,0.08406 -5.653543,0.0043 c -3.1094492,0.0024 -5.7759708,-0.0067 -5.9256036,-0.02023 z M 16.966723,18.195043 c 1.090932,-0.284316 2.026801,-0.999375 2.636411,-2.014374 0.178924,-0.297909 0.351162,-0.717804 0.524304,-1.278194 l 0.156027,-0.504995 -10e-5,-4.348346 -10e-5,-4.3483466 -0.111306,-0.4215386 C 19.692474,3.4633389 18.744903,2.3956881 17.13121,1.853166 L 16.771654,1.7322835 11.496063,1.728386 C 8.5944882,1.7262424 5.9724409,1.7352624 5.6692913,1.7484303 5.2178142,1.7680412 5.0696825,1.7868425 4.8503937,1.8523671 4.1557786,2.0599216 3.544422,2.4458742 3.0011476,3.0198063 2.4267482,3.6266195 2.0906846,4.2862513 1.8069185,5.3638611 l -0.1103296,0.4189795 0.012523,4.2896824 0.012523,4.289682 0.069077,0.251128 c 0.2422706,0.88077 0.4279217,1.315293 0.7943069,1.859108 0.5152969,0.76484 1.1951892,1.281641 2.1669678,1.647161 0.2852935,0.107309 0.3318576,0.115205 0.7913197,0.134177 0.2685039,0.01109 2.8905512,0.01754 5.8267717,0.01434 l 5.338582,-0.0058 z"
     id="path12888" />
  <path
     style="opacity:0.1;fill:#800000;stroke:#aa4400;stroke-width:0.0315457"
     d="M 5.1324466,19.571671 C 4.4743723,19.48656 3.4108836,19.030359 2.8031496,18.57248 2.4377603,18.297189 1.7109645,17.553117 1.5056079,17.244094 1.1045476,16.640576 0.65036981,15.566237 0.47089712,14.796529 c -0.0594063,-0.254778 -0.0614483,-0.412 -0.0614483,-4.731277 0,-4.8599988 -0.008243,-4.6143408 0.1763586,-5.2561515 C 0.81028885,4.0286362 1.219661,3.1276254 1.547822,2.6917472 1.9465253,2.1621714 2.5968246,1.5421712 3.0825141,1.2285603 3.5985631,0.8953462 4.4907849,0.53587754 4.992126,0.45919377 c 0.1212598,-0.0185476 1,-0.0493442 1.9527559,-0.0684369 1.9993691,-0.0400663 8.9581441,-0.0148035 9.6208481,0.034927 0.664935,0.049898 1.191399,0.19977049 1.838412,0.52335523 1.541848,0.7711102 2.619079,2.1945083 3.062179,4.0462044 l 0.08593,0.3590872 0.02356,2.2677165 c 0.01296,1.2472441 0.02512,3.2980578 0.02703,4.5573638 l 0.0035,2.289648 -0.108632,0.420185 c -0.354877,1.372648 -0.799022,2.234502 -1.560355,3.027839 -0.792268,0.825572 -1.636452,1.3072 -2.819202,1.608427 l -0.31496,0.08021 -5.732284,-0.0037 C 7.9181522,19.60002 5.2458634,19.58633 5.1324886,19.57166 Z M 17.174184,18.150606 c 0.904492,-0.31197 1.605149,-0.817772 2.166445,-1.56395 0.319267,-0.424428 0.517074,-0.830289 0.757759,-1.55477 l 0.191088,-0.575193 0.0049,-4.409449 0.0049,-4.4094487 -0.13258,-0.4447805 C 19.891651,4.2705024 19.603482,3.69556 19.13849,3.1417099 18.661056,2.5730408 18.05676,2.1762306 17.189481,1.8618977 l -0.40107,-0.1453623 -5.52019,2.694e-4 C 7.8810816,1.7169701 5.6117502,1.7291383 5.3953446,1.7482952 4.673011,1.8122386 4.0146224,2.1109292 3.3342878,2.6833334 2.5926535,3.3073123 2.1311794,4.1090243 1.7877723,5.3700709 l -0.098637,0.3622126 0.00808,4.3149605 0.00808,4.314961 0.1413169,0.488189 c 0.277901,0.960028 0.6269894,1.605644 1.1868872,2.195071 0.5663584,0.596228 1.5791628,1.148938 2.2105883,1.206367 0.1385827,0.0126 2.8031496,0.02134 5.9212593,0.0194 l 5.669292,-0.0035 z"
     id="path12927" />
  <path
     style="opacity:0.1;fill:#800000;stroke:#aa4400;stroke-width:0.0315457"
     d="M 10.582677,11.665979 C 10.137878,11.59788 9.5991351,11.369907 9.2283465,11.092885 9.1330709,11.021704 8.0396428,10.144714 6.7985062,9.144019 4.3712396,7.1869797 4.4306126,7.2418469 4.3868199,6.9153487 4.3671191,6.7684678 4.4390202,6.5379517 4.5498634,6.3926288 4.7364476,6.1480043 5.143666,6.0564007 5.4201848,6.1968504 c 0.076737,0.038976 1.1500748,0.8858268 2.3851947,1.8818898 1.23512,0.9960629 2.3029005,1.8495023 2.3728465,1.8965322 0.40921,0.2751436 1.024457,0.3223736 1.493969,0.1146866 0.193542,-0.08561 0.260375,-0.1381637 2.658514,-2.0903962 1.169291,-0.9518751 2.188622,-1.7628337 2.26518,-1.8021303 0.238385,-0.1223611 0.558366,-0.08366 0.773332,0.093533 0.171569,0.1414222 0.250325,0.3166634 0.251416,0.5594281 0.0017,0.3709744 0.09242,0.2834751 -2.392291,2.30654 -1.229921,1.0014104 -2.325565,1.8854924 -2.434764,1.9646274 -0.268977,0.194923 -0.724004,0.405707 -1.046922,0.484969 -0.311804,0.07653 -0.867134,0.104897 -1.163983,0.05945 z"
     id="path12966" />
  <path
     style="opacity:0.1;fill:#800000;stroke:#aa4400;stroke-width:0.0315457"
     d="M 10.490352,11.635012 C 10.111013,11.560601 9.5764378,11.324492 9.2620161,11.092485 9.1013631,10.973941 7.8897178,10.00593 6.9291339,9.2286916 6.7125984,9.0534861 6.3086614,8.7276219 6.0314961,8.504549 4.9032025,7.5964567 4.5297663,7.2676523 4.4601973,7.1210465 4.3533437,6.8958693 4.4389254,6.5036926 4.6340568,6.3243379 4.8050263,6.1671915 5.2007294,6.1023702 5.3890827,6.2006547 c 0.110159,0.057482 0.769904,0.5772896 2.9325469,2.310529 0.999731,0.8012292 1.8642984,1.4854843 1.9212594,1.5205673 0.382599,0.235639 1.070093,0.253833 1.489394,0.03942 0.169708,-0.086782 0.870108,-0.6399739 2.64567,-2.0896095 0.88258,-0.7205712 2.057585,-1.6530332 2.184138,-1.7332908 0.267046,-0.1693555 0.661362,-0.1064318 0.877799,0.1400763 0.192025,0.2187051 0.221596,0.6101747 0.06191,0.8195398 -0.149228,0.1956487 -1.158725,1.0373933 -3.715126,3.0977682 -1.141541,0.920045 -1.360746,1.064901 -1.865409,1.232703 -0.360095,0.119734 -1.06911,0.167628 -1.430908,0.09666 z"
     id="path13005" />
  <path
     style="opacity:0.1;fill:#800000;stroke:#aa4400;stroke-width:0.0315457"
     d="M 10.372034,11.589624 C 10.10345,11.517259 9.7294532,11.363181 9.517326,11.237506 9.2840469,11.0993 8.8670444,10.770765 6.3464567,8.7393476 4.9975515,7.652224 4.5610516,7.274759 4.486828,7.1312265 4.433162,7.0274478 4.4273546,6.7903608 4.4743347,6.6211863 4.5474871,6.3577664 4.8247244,6.1754781 5.1522002,6.1754781 c 0.2364248,0 0.029427,-0.1534484 3.0997683,2.2978762 0.9787402,0.7814148 1.8424565,1.4662495 1.9193685,1.5218548 0.208696,0.1508799 0.527275,0.2380469 0.868033,0.2375039 0.34801,-5.54e-4 0.57414,-0.06373 0.822749,-0.229852 0.167223,-0.1117401 1.627572,-1.2748815 2.673314,-2.1292457 0.856704,-0.6999211 1.975184,-1.5768988 2.087614,-1.6368558 0.230141,-0.1227301 0.597811,-0.054137 0.784899,0.146432 0.106238,0.1138939 0.166857,0.2895496 0.166857,0.4835027 0,0.2241369 -0.04599,0.3099671 -0.284327,0.5306244 -0.534412,0.4947713 -3.977876,3.2973594 -4.523504,3.6816174 -0.583758,0.411112 -1.064763,0.559266 -1.806342,0.556373 -0.259971,-10e-4 -0.488691,-0.01877 -0.588596,-0.04568 z"
     id="path13044" />
  <path
     style="opacity:0.1;fill:#800000;stroke:#aa4400;stroke-width:0.0315457"
     d="M 10.204724,11.516464 C 9.6008277,11.319251 9.5061471,11.254567 7.6850394,9.7950501 5.906288,8.3694802 5.0014802,7.6249912 4.7174435,7.3532692 l -0.2518753,-0.240955 0.01131,-0.2673073 c 0.00994,-0.2350096 0.021996,-0.2813125 0.099749,-0.3832195 0.1137063,-0.149029 0.3022548,-0.2441767 0.5234543,-0.2641522 0.1693466,-0.015293 0.1838018,-0.010275 0.4117289,0.1429195 0.1299213,0.087323 0.5905512,0.4404646 1.0236221,0.7847594 0.4330708,0.3442948 1.4110236,1.1219355 2.1732283,1.7280905 0.7622047,0.6061548 1.4313412,1.133946 1.4869702,1.1728694 0.347507,0.243145 1.043706,0.291334 1.473659,0.102002 0.188311,-0.08292 0.676673,-0.4636281 2.913386,-2.2711422 1.270772,-1.0269256 1.977317,-1.5735057 2.101351,-1.6255945 0.288337,-0.1210894 0.694761,0.043191 0.817571,0.3304698 0.05901,0.1380394 0.05915,0.4467752 2.52e-4,0.5606454 -0.06879,0.1329704 -0.322897,0.3634065 -1.249882,1.1334385 -1.81744,1.5097171 -3.40847,2.772707 -3.743922,2.971995 -0.488926,0.290465 -0.852862,0.37876 -1.553963,0.377007 -0.439378,-0.0011 -0.505136,-0.0089 -0.74936,-0.08863 z"
     id="path13083" />
  <path
     style="opacity:0.1;fill:#800000;stroke:#aa4400;stroke-width:0.0315457"
     d="M 10.5503,11.573777 C 10.117479,11.522369 9.6382743,11.296715 9.1041109,10.892774 7.9411165,10.013306 4.8970663,7.5285934 4.6236252,7.2355687 L 4.4755969,7.0769387 4.4934818,6.845556 C 4.5146008,6.5723388 4.5710858,6.4584757 4.7467514,6.335013 4.8502131,6.262297 4.9196911,6.240983 5.0916973,6.229193 L 5.3070866,6.214429 5.5300618,6.3719794 c 0.2511247,0.1774403 0.8796079,0.6712681 3.1313555,2.4604488 0.8574803,0.6813317 1.6183877,1.2643908 1.6909057,1.2956868 0.318646,0.137515 0.920611,0.160708 1.238288,0.04771 0.195317,-0.06948 0.587953,-0.3672345 2.320984,-1.7601427 2.714047,-2.1813911 2.732882,-2.1952087 2.99249,-2.1952087 0.558625,0 0.844218,0.6488668 0.460558,1.0463878 -0.364677,0.3778517 -3.358401,2.8353296 -4.388265,3.6022236 -0.628935,0.468341 -0.888062,0.598196 -1.338583,0.6708 -0.270908,0.04366 -0.852626,0.06179 -1.087495,0.03389 z"
     id="path13122" />
</svg>
