<?xml version="1.0" encoding="UTF-8" standalone="no"?>
<svg
   width="18"
   height="20"
   viewBox="0 0 18 20"
   fill="none"
   version="1.1"
   id="svg12026"
   sodipodi:docname="Iconly-Light-Location.svg"
   inkscape:version="1.1 (1:1.1+202105261517+ce6663b3b7)"
   xmlns:inkscape="http://www.inkscape.org/namespaces/inkscape"
   xmlns:sodipodi="http://sodipodi.sourceforge.net/DTD/sodipodi-0.dtd"
   xmlns="http://www.w3.org/2000/svg"
   xmlns:svg="http://www.w3.org/2000/svg">
  <defs
     id="defs12030" />
  <sodipodi:namedview
     id="namedview12028"
     pagecolor="#ffffff"
     bordercolor="#666666"
     borderopacity="1.0"
     inkscape:pageshadow="2"
     inkscape:pageopacity="0.0"
     inkscape:pagecheckerboard="0"
     showgrid="false"
     inkscape:zoom="31.75"
     inkscape:cx="9.007874"
     inkscape:cy="9.8582677"
     inkscape:window-width="1920"
     inkscape:window-height="1023"
     inkscape:window-x="0"
     inkscape:window-y="25"
     inkscape:window-maximized="1"
     inkscape:current-layer="svg12026" />
  <path
     fill-rule="evenodd"
     clip-rule="evenodd"
     d="M11.5 8.50051C11.5 7.11924 10.3808 6 9.00051 6C7.61924 6 6.5 7.11924 6.5 8.50051C6.5 9.88076 7.61924 11 9.00051 11C10.3808 11 11.5 9.88076 11.5 8.50051Z"
     stroke="#363853"
     stroke-width="1.5"
     stroke-linecap="round"
     stroke-linejoin="round"
     id="path12022" />
  <path
     fill-rule="evenodd"
     clip-rule="evenodd"
     d="M8.99951 19C7.80104 19 1.5 13.8984 1.5 8.56329C1.5 4.38664 4.8571 1 8.99951 1C13.1419 1 16.5 4.38664 16.5 8.56329C16.5 13.8984 10.198 19 8.99951 19Z"
     stroke="#363853"
     stroke-width="1.5"
     stroke-linecap="round"
     stroke-linejoin="round"
     id="path12024" />
  <path
     style="opacity:0.1;fill:#800000;stroke:#aa4400;stroke-width:0.0315457"
     d="M 8.6456693,19.68341 C 7.7442148,19.456047 5.9150772,18.075842 4.5572438,16.598425 2.4061114,14.257844 1.1461683,11.877958 0.83050785,9.5590551 0.76641396,9.0882091 0.75886382,8.0899263 0.81585801,7.6220472 1.0026513,6.0886161 1.5938891,4.6511688 2.5453072,3.4173228 2.8110354,3.0727134 3.5923984,2.2913504 3.9370079,2.0256221 5.5167619,0.80747465 7.3281049,0.21291298 9.2598425,0.27843595 c 0.8799735,0.029848 1.4859425,0.13851313 2.3228115,0.4165374 2.800752,0.93046425 4.884515,3.29369565 5.485721,6.22145215 0.123106,0.5994989 0.168809,1.1615424 0.149578,1.83948 -0.01858,0.6548176 -0.06225,1.0122019 -0.197647,1.6172915 -0.288638,1.289931 -0.957999,2.756826 -1.863345,4.083496 -1.182196,1.732358 -2.919375,3.502309 -4.433638,4.51728 -0.9812682,0.657718 -1.5341734,0.846514 -2.0776537,0.709437 z m 0.5729578,-1.508185 c 0.8748229,-0.407311 2.4796779,-1.769422 3.5531769,-3.015738 1.670086,-1.938942 2.658997,-3.866509 2.929778,-5.7106681 0.05995,-0.4082706 0.06819,-1.2834643 0.01601,-1.7007874 C 15.594969,6.7671902 15.237488,5.7445569 14.735153,4.9376019 13.642469,3.1823017 11.807804,2.0184374 9.7525254,1.77675 9.3343512,1.7275756 8.2660277,1.7560037 7.8740157,1.8267374 5.2659597,2.2973283 3.2041507,4.1640252 2.4922919,6.6991805 2.3112861,7.3437997 2.2556036,7.7687594 2.2537512,8.519685 c -0.00186,0.7552479 0.036229,1.0653868 0.2185905,1.77973 0.4534048,1.776069 1.6640674,3.761284 3.364584,5.517164 0.759148,0.783863 1.5040037,1.430995 2.2011288,1.912345 0.3508888,0.242281 0.861452,0.521696 0.9540715,0.522132 0.034646,1.58e-4 0.136571,-0.03396 0.2265011,-0.07583 z"
     id="path12087" />
  <path
     style="opacity:0.1;fill:#800000;stroke:#aa4400;stroke-width:0.0315457"
     d="M 8.5095332,19.620618 C 7.6468835,19.32677 6.1577339,18.217247 4.9131024,16.941018 2.6407941,14.611024 1.2245362,12.07119 0.86581208,9.6828447 0.79651043,9.2214419 0.77215061,8.2997572 0.81634049,7.8110236 0.95521633,6.2750775 1.55411,4.7547383 2.5263261,3.4700888 2.7762304,3.139875 3.657051,2.2584385 3.9855011,2.0098938 5.2672469,1.039971 6.6973254,0.46951797 8.2004954,0.32854812 c 0.5723626,-0.0536771 1.6271106,-0.022709 2.1067616,0.061856 1.757886,0.30992459 3.247191,1.07961698 4.4816,2.31614938 1.277674,1.2798723 2.080881,2.8890172 2.343526,4.6950213 0.07281,0.5006734 0.08775,1.4470107 0.03164,2.004537 -0.147422,1.4648732 -0.817439,3.1975192 -1.849542,4.7828642 -1.391043,2.136692 -3.753097,4.427614 -5.4089712,5.246085 -0.5783304,0.285859 -0.9546677,0.335883 -1.3959786,0.185557 z m 0.8194807,-1.488006 c 0.9458541,-0.490757 2.5618931,-1.899318 3.5996121,-3.13747 1.787735,-2.133033 2.766327,-4.274586 2.829457,-6.1919924 C 15.787345,7.914434 15.688487,7.2125843 15.418468,6.3920252 14.613662,3.946297 12.526601,2.185214 9.9685039,1.7932906 9.4790066,1.7182953 8.1930098,1.7450149 7.7342573,1.8397123 5.2770485,2.3469389 3.3408276,4.0605206 2.5707923,6.4094488 2.303737,7.2240787 2.2166993,7.8653795 2.245918,8.8031496 c 0.00999,0.3204724 0.038988,0.696063 0.064451,0.8346457 0.3342697,1.8192827 1.2912578,3.6403367 2.8951207,5.5091277 0.6199497,0.722354 1.5801909,1.641563 2.3041018,2.205646 0.6271868,0.488715 1.3069634,0.8994 1.4887099,0.8994 0.055369,0 0.2041899,-0.05371 0.3307125,-0.119357 z"
     id="path12126" />
  <path
     style="opacity:0.1;fill:#800000;stroke:#aa4400;stroke-width:0.0315457"
     d="M 8.6929134,19.653791 C 8.1372809,19.531175 7.0772523,18.860376 6.0449946,17.978157 3.8999196,16.144867 2.1169569,13.676824 1.3341871,11.45728 0.98050056,10.454403 0.84999979,9.7545739 0.82751089,8.7401575 0.80561636,7.7525518 0.88108103,7.1191553 1.1179241,6.3026359 1.3389844,5.5405282 1.7781266,4.5993556 2.2290517,3.9212598 2.732827,3.1636887 3.5990407,2.284401 4.3464567,1.7718963 5.4462249,1.017783 6.6491874,0.5484314 7.9212598,0.3771402 8.371109,0.31656566 9.4234384,0.30816455 9.9370079,0.3610478 11.355907,0.50715462 12.9308,1.1689779 14.110236,2.1147795 c 0.332462,0.2666042 0.9643,0.8936663 1.217256,1.2080551 1.339783,1.6651594 1.956886,3.5926986 1.837596,5.7397852 -0.05234,0.9420392 -0.253929,1.7947572 -0.668361,2.8271442 -0.747244,1.861449 -1.958676,3.586518 -3.760846,5.355413 -1.019982,1.001149 -1.972864,1.735238 -2.7779941,2.140132 -0.5525902,0.277894 -0.8939811,0.350352 -1.2649735,0.268482 z M 9.3224633,18.14734 c 0.8532527,-0.417941 2.5272257,-1.861535 3.5310427,-3.045086 1.591148,-1.876044 2.512632,-3.657064 2.851707,-5.5117028 0.07863,-0.430103 0.07874,-1.6877723 1.89e-4,-2.1102362 C 15.273872,5.1598595 13.970801,3.3950074 11.96094,2.4089134 10.865226,1.8713254 9.8536784,1.6731476 8.5701631,1.7446076 7.9004655,1.7818931 7.5217868,1.849206 6.9660211,2.0297551 4.5852117,2.8031984 2.8725075,4.7222954 2.3405765,7.2125984 c -0.084499,0.3955928 -0.087438,0.4408914 -0.086838,1.3385827 6.869e-4,1.0290123 0.013654,1.1299118 0.2517669,1.9590999 0.538568,1.875468 1.9088714,3.979587 3.7454657,5.751211 0.9111524,0.878921 1.7750419,1.546703 2.4419427,1.887609 0.3011707,0.153953 0.3117121,0.153923 0.6295499,-0.0018 z"
     id="path12165" />
  <path
     style="opacity:0.1;fill:#800000;stroke:#aa4400;stroke-width:0.0315457"
     d="M 8.6299213,19.619355 C 7.8301663,19.407948 6.2786787,18.269072 4.9595871,16.925129 4.3242926,16.277866 3.9990224,15.907416 3.5206479,15.286325 2.1037645,13.446734 1.2045169,11.553879 0.92632525,9.8254551 0.84650005,9.3294954 0.8290737,7.9782044 0.89574757,7.4543713 1.0081532,6.5712406 1.2663088,5.7615087 1.7324274,4.8300384 2.1402858,4.0149928 2.4984114,3.5118709 3.1496063,2.8390778 3.8878182,2.0763819 4.5191534,1.6135451 5.4330709,1.165052 6.5188003,0.63224441 7.453571,0.39414274 8.6456693,0.34674951 10.078611,0.28978126 11.233116,0.52833922 12.519685,1.1472466 c 0.785564,0.3778972 1.328704,0.7429818 1.951666,1.311859 1.456901,1.3304144 2.342403,3.0095549 2.622477,4.9728925 0.06336,0.4441578 0.07207,1.7385839 0.01443,2.142805 -0.232119,1.6275889 -0.977936,3.4071599 -2.092198,4.9921259 -1.265824,1.800553 -3.358068,3.839223 -4.763242,4.641275 -0.7208483,0.41145 -1.1808716,0.527994 -1.6228927,0.411151 z m 0.6588041,-1.446992 c 0.6782141,-0.325025 1.6643756,-1.109247 2.7304406,-2.171318 1.978268,-1.970856 3.238486,-4.120614 3.674038,-6.267399 0.06322,-0.3116019 0.07043,-0.4380079 0.06922,-1.213961 C 15.760971,7.5863984 15.742445,7.4363937 15.538768,6.7086614 14.851463,4.2529364 12.916414,2.4106882 10.4467,1.8607966 9.3766961,1.6225561 8.0139043,1.6796267 6.9959178,2.0053075 5.9325994,2.3454913 5.0000847,2.9137869 4.2187893,3.6977528 3.2722548,4.6475222 2.6797439,5.7314532 2.340505,7.1338583 2.267771,7.4345376 2.259103,7.5426315 2.245038,8.3242844 2.22434,9.4746164 2.269648,9.822925 2.5570575,10.722946 c 0.7227875,2.263405 2.6024782,4.795028 4.929778,6.63957 0.5589751,0.443026 1.3402655,0.920709 1.5061786,0.920882 0.035135,3.1e-5 0.1682041,-0.04993 0.2957113,-0.111035 z"
     id="path12204" />
  <path
     style="opacity:0.1;fill:#800000;stroke:#aa4400;stroke-width:0.0315457"
     d="M 8.4839008,19.547747 C 7.9333795,19.356106 7.1398365,18.835258 6.171772,18.030165 5.6606113,17.605057 4.4148271,16.3595 3.9994778,15.858268 2.3338527,13.848235 1.3171233,11.86065 0.95440352,9.9055118 0.90834087,9.6572243 0.89878638,9.4213613 0.89826551,8.519685 0.89768116,7.5081392 0.9027207,7.4070132 0.97121286,7.0558844 1.1183814,6.3014176 1.3700935,5.5928898 1.7771158,4.7874016 2.2155128,3.9198236 2.656311,3.3343665 3.4370812,2.5826772 4.0862992,1.9576403 4.6180409,1.589665 5.4868756,1.1641814 6.6724419,0.58358896 7.6519024,0.36220472 9.0350261,0.36220472 c 1.3541199,0 2.4742109,0.27664985 3.7110299,0.91658238 1.537005,0.7952497 2.7932,2.080172 3.553338,3.6345987 0.372986,0.7627311 0.593834,1.4478397 0.74116,2.2992126 0.08408,0.4858608 0.118374,1.6287947 0.06511,2.1697613 -0.164917,1.6749893 -1.056541,3.7832463 -2.308561,5.4586253 -1.241324,1.661067 -3.072757,3.440308 -4.3623,4.237987 -0.871318,0.538975 -1.3907196,0.66378 -1.9509032,0.468775 z M 9.3079751,18.177403 C 9.98596,17.84993 11.095343,16.956471 12.165224,15.876272 c 1.304787,-1.31737 2.382286,-2.889808 2.995789,-4.371874 0.268423,-0.64844 0.514194,-1.496349 0.585071,-2.0184881 0.04336,-0.319399 0.0431,-1.4805707 -4.19e-4,-1.8708201 C 15.649609,6.7536624 15.197802,5.5629984 14.654747,4.7401575 13.594602,3.1338184 11.859605,2.029377 9.9791483,1.7638267 9.2803099,1.6651397 8.124983,1.7099004 7.4739483,1.8608854 6.6416085,2.053918 5.7511827,2.464409 5.0098157,2.9968639 4.6476926,3.2569434 3.8633347,4.0263798 3.5929645,4.3867616 3.0573163,5.1007373 2.6822242,5.8712022 2.4102334,6.8161717 2.3515988,7.0198844 2.2871305,7.3058031 2.2669704,7.4515468 2.2195649,7.794257 2.218805,9.2440539 2.2658491,9.5905512 c 0.073287,0.5397808 0.3372482,1.3913038 0.6526769,2.1054928 0.8634407,1.954989 2.5518198,4.06675 4.4964176,5.623948 0.6242407,0.49988 1.3808488,0.961512 1.5780709,0.962834 0.052457,3.52e-4 0.1941896,-0.04709 0.3149606,-0.105423 z"
     id="path12243" />
  <path
     style="opacity:0.1;fill:#800000;stroke:#aa4400;stroke-width:0.0315457"
     d="M 8.5354331,19.546742 C 7.998514,19.372646 7.1636882,18.830584 6.2047244,18.033388 5.7594986,17.663267 4.3925474,16.302609 4.035365,15.874016 2.4986782,14.030101 1.454318,12.076152 1.055839,10.299462 0.92619382,9.7214164 0.90727957,9.4431805 0.9209943,8.3158463 0.93212943,7.4005528 0.94167418,7.2396472 1.0004503,6.976378 1.300459,5.6325814 1.9336926,4.3102595 2.7359386,3.352322 3.0049733,3.0310758 3.6438851,2.3953004 3.9598744,2.1343946 4.6713808,1.5469183 5.9351887,0.9017269 6.8976378,0.63462565 7.5099288,0.46470114 7.8878419,0.41816188 8.7874016,0.40190484 c 0.661856,-0.0119612 0.9259307,-0.004072 1.2755904,0.038109 1.310377,0.15807592 2.706736,0.73736046 3.847218,1.59603286 0.655965,0.4938777 1.39244,1.2843977 1.873699,2.0111974 0.256147,0.386834 0.69997,1.2681868 0.862123,1.7120224 0.130052,0.3559685 0.299623,1.0011902 0.377813,1.4375839 0.08047,0.4491354 0.102466,1.9413348 0.03563,2.4172835 -0.105862,0.7538521 -0.369421,1.6800081 -0.696878,2.4488581 -0.737555,1.731737 -1.725833,3.149796 -3.354723,4.813625 -1.431777,1.462487 -2.789401,2.470205 -3.6108453,2.680208 -0.2561156,0.06548 -0.6425153,0.06095 -0.8615956,-0.01008 z M 9.198235,18.238119 c 0.92474,-0.375756 2.862368,-2.077442 4.046366,-3.553645 1.219046,-1.519901 1.997294,-3.02401 2.41567,-4.668726 0.09402,-0.3696261 0.09646,-0.3983603 0.110584,-1.3042645 0.0185,-1.1864366 -0.02579,-1.503606 -0.335246,-2.4010696 C 14.617259,3.937109 12.589391,2.1964097 10.15748,1.7797267 9.4600318,1.660226 8.5013159,1.6670813 7.7419209,1.7969991 6.7374063,1.968852 5.5200954,2.5365809 4.7401575,3.1969597 3.5025808,4.2448246 2.7844088,5.3797109 2.3584538,6.9606299 2.2402537,7.3993257 2.1897656,8.1259839 2.219534,8.9600545 c 0.027248,0.7634491 0.09648,1.1227415 0.3733551,1.9375835 0.533212,1.569242 1.6145786,3.265604 3.0648271,4.807856 0.8029909,0.853933 1.6600961,1.603087 2.4192564,2.114555 0.2768819,0.186544 0.8378472,0.494912 0.9003143,0.494912 0.017511,0 0.116938,-0.03458 0.2209481,-0.07684 z"
     id="path12282" />
  <path
     style="opacity:0.1;fill:#800000;stroke:#aa4400;stroke-width:0.0315457"
     d="M 8.4514689,11.687755 C 6.4105442,11.298369 5.2477066,9.2157398 6.002235,7.301205 6.160774,6.8989291 6.3582244,6.6050393 6.7086614,6.2497433 7.2096869,5.7417708 7.6981479,5.4731527 8.3779528,5.3317543 c 0.3968535,-0.082545 1.0220308,-0.066583 1.4173228,0.036188 1.1987224,0.3116512 2.1188524,1.2786513 2.3692204,2.4899056 0.05076,0.2455793 0.0592,0.3820198 0.04678,0.7563257 -0.01855,0.5590737 -0.08286,0.8213153 -0.320529,1.3070866 -0.418815,0.8559998 -1.167368,1.4666328 -2.0917302,1.7063308 -0.3775486,0.0979 -1.0033106,0.125841 -1.3475509,0.06016 z M 9.4632583,10.203742 C 9.7444583,10.130499 10.009093,9.9746715 10.237171,9.7480315 10.944345,9.0453156 10.94448,7.9655789 10.237486,7.2585808 9.8719975,6.8930961 9.4997748,6.7410806 8.976378,6.7435466 8.4031293,6.7462474 7.9021144,7.0042371 7.5721607,7.4666258 7.3631472,7.759532 7.2715701,8.024883 7.2521632,8.3938409 c -0.019672,0.3739947 0.02407,0.592424 0.1815859,0.9067632 0.2963019,0.5913014 0.8768996,0.9487709 1.5438855,0.9505589 0.1709071,4.57e-4 0.3803078,-0.01999 0.4856237,-0.04742 z"
     id="path12321" />
  <path
     style="opacity:0.1;fill:#800000;stroke:#aa4400;stroke-width:0.0315457"
     d="M 8.519685,11.687907 C 8.5023622,11.681145 8.3834711,11.651515 8.2554827,11.622064 7.9381096,11.549035 7.5402407,11.377736 7.2497822,11.189069 6.920789,10.975372 6.4773639,10.521354 6.2732922,10.189251 5.5515294,9.0146665 5.6535094,7.4984279 6.5229423,6.4774523 7.0461959,5.8629953 7.6292001,5.5074389 8.3641231,5.3545725 c 0.3235386,-0.067297 0.9639452,-0.06647 1.2938344,0.00167 1.1865695,0.2450926 2.1530055,1.1774077 2.4551405,2.368461 0.126659,0.4993027 0.102046,1.2881811 -0.05471,1.7535525 -0.245315,0.72828 -0.779759,1.403173 -1.39836,1.765838 -0.550206,0.322568 -0.924644,0.425992 -1.6049089,0.443292 -0.2771653,0.007 -0.5181102,0.0073 -0.5354331,5.2e-4 z M 9.5525858,10.188684 C 10.083923,10.024571 10.573234,9.4987373 10.724872,8.9288957 10.783763,8.7075918 10.783913,8.3008447 10.725187,8.0801683 10.593911,7.5868809 10.202069,7.1073713 9.7602195,6.8993091 9.0758413,6.5770427 8.2884493,6.7119309 7.7628221,7.2414835 7.3906006,7.6164847 7.2440945,7.9796414 7.2440945,8.5272957 c 0,0.3456426 0.05994,0.5745881 0.2288939,0.8742791 0.2023491,0.3589272 0.6338349,0.6928642 1.0344864,0.8006122 0.2613352,0.07028 0.7962219,0.06337 1.045111,-0.0135 z"
     id="path12360" />
  <path
     style="opacity:0.1;fill:#800000;stroke:#aa4400;stroke-width:0.0315457"
     d="M 8.1931687,11.590116 C 7.4447151,11.362991 6.9476821,11.030404 6.4807995,10.444293 5.7840271,9.5695849 5.618551,8.3107901 6.0619617,7.2581494 6.4102345,6.4313629 7.1914181,5.7233038 8.0534351,5.4530929 8.5555826,5.2956879 9.3199616,5.2801522 9.8379263,5.4168237 c 1.1026307,0.290943 2.0389827,1.2730848 2.2675617,2.3784519 0.102135,0.4939069 0.09108,1.101622 -0.0284,1.5603052 -0.167969,0.6448782 -0.7355,1.4274962 -1.299981,1.7926572 -0.594673,0.384691 -0.9602779,0.490799 -1.753488,0.508906 -0.5367401,0.01225 -0.5809617,0.0087 -0.8304533,-0.06703 z M 9.5847146,10.185637 C 10.190274,9.9816391 10.690483,9.3686523 10.770646,8.7323225 10.842105,8.1650934 10.65123,7.6406037 10.218278,7.2145142 9.8731553,6.874862 9.4893802,6.7240907 8.9718318,6.7248308 8.3580565,6.7257086 7.839565,7.0156631 7.493033,7.5518153 7.1382471,8.100738 7.137413,8.9112898 7.4910797,9.4501269 c 0.2876274,0.4382218 0.6951599,0.7121351 1.1943814,0.8027741 0.2202271,0.03998 0.6838283,0.0053 0.8992535,-0.06726 z"
     id="path12399" />
  <path
     style="opacity:0.1;fill:#800000;stroke:#aa4400;stroke-width:0.0315457"
     d="M 8.0629921,11.527369 C 7.4816144,11.327936 7.0961772,11.084264 6.7032543,10.667745 6.1712431,10.103785 5.8881327,9.4479449 5.8405,8.6691301 5.7866237,7.7882311 6.0867147,6.9823254 6.7105828,6.3324899 7.3966653,5.6178503 8.2054432,5.2978465 9.1968504,5.3487646 9.9924287,5.3896251 10.65918,5.68965 11.230838,6.2640183 c 0.422507,0.4245103 0.699999,0.9061187 0.83914,1.4563914 0.09863,0.3900429 0.09878,1.2281371 2.84e-4,1.5896183 -0.29175,1.070775 -1.233202,2.014775 -2.2434922,2.249564 -0.1644215,0.03821 -0.4181118,0.0589 -0.8346457,0.06806 L 8.3936989,11.640813 8.0629902,11.527369 Z M 9.4258208,10.237188 C 10.181823,10.076988 10.804743,9.2885676 10.802684,8.4945128 10.80066,7.7136528 10.183803,6.9380749 9.4173228,6.7526876 8.8643171,6.6189331 8.2198284,6.7828171 7.8038922,7.1629594 7.4464607,7.4896316 7.2473631,7.9155328 7.2211912,8.4094488 7.1967989,8.8697798 7.3043753,9.2260797 7.5767927,9.5872233 8.0001692,10.148494 8.6937818,10.39231 9.4258208,10.237188 Z"
     id="path12438" />
  <path
     style="opacity:0.1;fill:#800000;stroke:#aa4400;stroke-width:0.0315457"
     d="M 8.1158898,11.528019 C 7.9568748,11.47225 7.7559055,11.393706 7.6692913,11.353476 6.9044413,10.998227 6.2336616,10.229935 5.9895014,9.4294917 5.779458,8.7408948 5.8272878,7.863076 6.1086634,7.2425153 6.4526061,6.4839659 7.2052635,5.7847342 7.9557687,5.5265225 8.635866,5.2925347 9.562342,5.3185984 10.21443,5.5900634 c 0.852718,0.3549875 1.577738,1.1788537 1.824395,2.0731269 0.05675,0.2057499 0.06718,0.332637 0.06909,0.8407467 0.0027,0.7103257 -0.02367,0.8382129 -0.278995,1.3543307 -0.460785,0.9314373 -1.335394,1.6046433 -2.2268633,1.7140673 -0.1449109,0.01779 -0.4735282,0.03791 -0.7302614,0.04471 -0.4597092,0.01218 -0.4711714,0.01083 -0.7559055,-0.08903 z M 9.4761757,10.237712 C 9.7406813,10.167311 9.980338,10.031885 10.195395,9.831291 10.592222,9.4611528 10.803487,9.0016318 10.802776,8.5101852 10.802043,8.0042371 10.638632,7.6256034 10.254769,7.2404159 9.7666447,6.7506089 9.2018447,6.5894938 8.5538721,6.7552173 8.2265028,6.8389443 8.0291361,6.950863 7.7601245,7.2053198 7.3853993,7.5597705 7.2140142,7.9719333 7.213064,8.5209417 7.2121925,9.0244321 7.368518,9.4003493 7.731326,9.767211 c 0.227512,0.2300542 0.4342163,0.357459 0.7411149,0.456796 0.21841,0.07069 0.761744,0.07811 1.0037348,0.0137 z"
     id="path12477" />
  <path
     style="opacity:0.1;fill:#800000;stroke:#aa4400;stroke-width:0.0315457"
     d="M 8.0944882,11.500671 C 7.5109561,11.295913 7.1380019,11.060186 6.7480101,10.649626 6.2863862,10.163656 6.0159983,9.6392472 5.9198988,9.0435298 5.864269,8.6986822 5.8961991,7.9727302 5.9809554,7.6553708 6.1128771,7.1614065 6.4280684,6.6541423 6.8536528,6.2508646 7.5087392,5.630114 8.0944815,5.3956923 8.992126,5.39502 c 0.5105124,-3.823e-4 0.8143238,0.052693 1.203391,0.2102317 0.817465,0.3310017 1.535652,1.1252626 1.809389,2.0010475 0.06783,0.2170236 0.07383,0.2912517 0.07383,0.9133858 0,0.7635125 -0.0071,0.7994536 -0.25916,1.3070867 -0.403958,0.8136303 -1.071857,1.4109563 -1.8439923,1.6491473 -0.2291581,0.07069 -0.825536,0.130583 -1.2951221,0.130063 -0.2436651,-2.84e-4 -0.3317354,-0.0161 -0.5859774,-0.105311 z M 9.3070866,10.281977 C 10.020504,10.179285 10.634725,9.5605446 10.792817,8.7853143 10.918688,8.1680837 10.630152,7.4820429 10.062701,7.0493446 9.6792957,6.756987 9.2882306,6.6490901 8.796977,6.7001246 8.0675655,6.7759004 7.4461258,7.3080918 7.2580982,8.0179968 c -0.076803,0.2899705 -0.070198,0.771721 0.01425,1.0393931 0.1962681,0.6221074 0.7660925,1.1160941 1.413113,1.2250411 0.2130958,0.03588 0.3699907,0.03577 0.6216256,-4.53e-4 z"
     id="path12516" />
  <path
     style="opacity:0.1;fill:#800000;stroke:#aa4400;stroke-width:0.0315457"
     d="M 8.3530642,11.555417 C 8.2541545,11.535106 8.0389017,11.464601 7.8747247,11.39874 7.0453748,11.066037 6.3226659,10.305012 6.0386892,9.4653603 5.9374289,9.1659578 5.9372251,9.1640554 5.9373722,8.519685 5.937537,7.7978027 5.9637121,7.6450054 6.1575008,7.2346839 6.4780815,6.555897 7.1809783,5.8726468 7.8300118,5.6089208 8.2382224,5.44305 8.8578901,5.3731662 9.40256,5.4315748 c 0.3947342,0.04233 0.716716,0.1401012 1.04859,0.3184093 0.744398,0.3999471 1.355779,1.169923 1.564144,1.9698879 0.05782,0.2219764 0.06666,1.2727233 0.01288,1.5305463 -0.01915,0.091797 -0.08903,0.28369 -0.155288,0.4264277 -0.39331,0.847266 -1.053283,1.485952 -1.799828,1.741773 -0.3995222,0.136905 -1.3509691,0.212578 -1.7199978,0.136798 z M 9.3921506,10.28041 C 9.8222419,10.191378 10.238807,9.8942183 10.517379,9.4777181 11.010744,8.7400756 10.914921,7.8742652 10.268359,7.2277037 9.6503342,6.6096786 8.8050182,6.4946847 8.0787402,6.9298354 7.4014848,7.335614 7.0605004,8.1214303 7.2248638,8.8976378 7.366592,9.5669502 7.914776,10.120502 8.5956574,10.281854 c 0.1653482,0.03918 0.6040752,0.03839 0.7964932,-0.0014 z"
     id="path12555" />
</svg>
