<?xml version="1.0" encoding="UTF-8" standalone="no"?>
<svg
   height="6.82666in"
   style="shape-rendering:geometricPrecision; text-rendering:geometricPrecision; image-rendering:optimizeQuality; fill-rule:evenodd; clip-rule:evenodd"
   viewBox="0 0 6.82666 6.82666"
   width="6.82666in"
   xml:space="preserve"
   version="1.1"
   id="svg1101"
   sodipodi:docname="left.svg"
   inkscape:version="1.1 (1:1.1+202105261517+ce6663b3b7)"
   xmlns:inkscape="http://www.inkscape.org/namespaces/inkscape"
   xmlns:sodipodi="http://sodipodi.sourceforge.net/DTD/sodipodi-0.dtd"
   xmlns="http://www.w3.org/2000/svg"
   xmlns:svg="http://www.w3.org/2000/svg"><sodipodi:namedview
     id="namedview1103"
     pagecolor="#ffffff"
     bordercolor="#666666"
     borderopacity="1.0"
     inkscape:pageshadow="2"
     inkscape:pageopacity="0.0"
     inkscape:pagecheckerboard="0"
     inkscape:document-units="in"
     showgrid="false"
     inkscape:zoom="0.96893403"
     inkscape:cx="327.67969"
     inkscape:cy="327.16366"
     inkscape:window-width="1920"
     inkscape:window-height="1023"
     inkscape:window-x="0"
     inkscape:window-y="25"
     inkscape:window-maximized="1"
     inkscape:current-layer="svg1101" /><defs
     id="defs1093"><style
       type="text/css"
       id="style1091">
   <![CDATA[
    .fil1 {fill:none}
    .fil0 {fill:#0A93E2;fill-rule:nonzero}
   ]]>
  </style></defs><g
     id="Layer_x0020_1"
     style="fill:#ff7a50;fill-opacity:1"><g
       id="_506615432"
       style="fill:#ff7a50;fill-opacity:1"><path
         class="fil0"
         d="M5.76 3.62667c0.117819,0 0.213335,-0.0955157 0.213335,-0.213335 0,-0.117819 -0.0955157,-0.213335 -0.213335,-0.213335l-4.69334 0c-0.117819,0 -0.213335,0.0955157 -0.213335,0.213335 0,0.117819 0.0955157,0.213335 0.213335,0.213335l4.69334 0z"
         id="_506615984"
         style="fill:#ff7a50;fill-opacity:1" /><path
         class="fil0"
         d="M2.4487 5.09704c0.0833031,0.0833031 0.218366,0.0833031 0.301669,0 0.0833031,-0.0833031 0.0833031,-0.218366 0,-0.301669l-1.38204 -1.38204 1.38204 -1.38204c0.0833031,-0.0833031 0.0833031,-0.218366 0,-0.301669 -0.0833031,-0.0833031 -0.218366,-0.0833031 -0.301669,0l-1.53163 1.53163 -0.00125984 0.00122835c-0.083311,0.083311 -0.083311,0.21839 0,0.301701l1.5748e-005 -1.5748e-005 1.53287 1.53288z"
         id="_506616128"
         style="fill:#ff7a50;fill-opacity:1" /></g></g><rect
     class="fil1"
     height="6.82666"
     width="6.82666"
     id="rect1099" /></svg>
