<?xml version="1.0" encoding="UTF-8" standalone="no"?>
<svg
   height="6.82666in"
   style="shape-rendering:geometricPrecision; text-rendering:geometricPrecision; image-rendering:optimizeQuality; fill-rule:evenodd; clip-rule:evenodd"
   viewBox="0 0 6.82666 6.82666"
   width="6.82666in"
   xml:space="preserve"
   version="1.1"
   id="svg882"
   sodipodi:docname="right.svg"
   inkscape:version="1.1 (1:1.1+202105261517+ce6663b3b7)"
   xmlns:inkscape="http://www.inkscape.org/namespaces/inkscape"
   xmlns:sodipodi="http://sodipodi.sourceforge.net/DTD/sodipodi-0.dtd"
   xmlns="http://www.w3.org/2000/svg"
   xmlns:svg="http://www.w3.org/2000/svg"><sodipodi:namedview
     id="namedview884"
     pagecolor="#ffffff"
     bordercolor="#666666"
     borderopacity="1.0"
     inkscape:pageshadow="2"
     inkscape:pageopacity="0.0"
     inkscape:pagecheckerboard="0"
     inkscape:document-units="in"
     showgrid="false"
     inkscape:zoom="1.2695325"
     inkscape:cx="327.28584"
     inkscape:cy="327.67969"
     inkscape:window-width="1920"
     inkscape:window-height="1023"
     inkscape:window-x="0"
     inkscape:window-y="25"
     inkscape:window-maximized="1"
     inkscape:current-layer="svg882" /><defs
     id="defs873"><style
       type="text/css"
       id="style871">
   <![CDATA[
    .fil1 {fill:none}
    .fil0 {fill:#0A93E2;fill-rule:nonzero}
   ]]>
  </style></defs><g
     id="Layer_x0020_1"
     style="fill:#ff7a50;fill-opacity:1"><path
       class="fil0"
       d="M1.06666 3.2c-0.117819,0 -0.213335,0.0955157 -0.213335,0.213335 0,0.117819 0.0955157,0.213335 0.213335,0.213335l4.69334 0c0.117819,0 0.213335,-0.0955157 0.213335,-0.213335 0,-0.117819 -0.0955157,-0.213335 -0.213335,-0.213335l-4.69334 0z"
       id="path875"
       style="fill:#ff7a50;fill-opacity:1" /><path
       class="fil0"
       d="M4.37796 1.72962c-0.0833031,-0.0833031 -0.218366,-0.0833031 -0.301669,0 -0.0833031,0.0833031 -0.0833031,0.218366 0,0.301669l1.38204 1.38204 -1.38204 1.38204c-0.0833031,0.0833031 -0.0833031,0.218366 0,0.301669 0.0833031,0.0833031 0.218366,0.0833031 0.301669,0l1.53163 -1.53163 0.00125984 -0.00122835c0.083311,-0.083311 0.083311,-0.21839 0,-0.301701l-1.5748e-005 1.5748e-005 -1.53287 -1.53288z"
       id="path877"
       style="fill:#ff7a50;fill-opacity:1" /></g><rect
     class="fil1"
     height="6.82666"
     width="6.82666"
     id="rect880" /></svg>
